<?xml version="1.0" standalone="no"?>
<!DOCTYPE svg PUBLIC "-//W3C//DTD SVG 20010904//EN"
 "http://www.w3.org/TR/2001/REC-SVG-20010904/DTD/svg10.dtd">
<svg version="1.0" xmlns="http://www.w3.org/2000/svg"
 width="2452.000000pt" height="280.000000pt" viewBox="0 0 2452.000000 280.000000"
 preserveAspectRatio="xMidYMid meet">

<g transform="translate(0.000000,280.000000) scale(0.100000,-0.100000)"
fill="#000000" stroke="none">
<path d="M19315 2331 c-103 -17 -132 -28 -320 -110 -35 -16 -150 -118 -178
-158 -15 -21 -38 -72 -52 -112 -23 -64 -25 -80 -16 -121 25 -117 90 -209 204
-289 69 -49 147 -128 147 -148 0 -11 -6 -26 -12 -34 -26 -31 -109 -91 -154
-110 -66 -30 -210 -161 -238 -218 -12 -25 -33 -81 -45 -125 -29 -97 -25 -153
15 -233 35 -70 143 -187 198 -215 23 -11 65 -37 95 -56 54 -36 137 -60 341
-98 121 -23 456 -14 550 15 36 11 97 27 136 36 40 9 93 30 120 46 26 17 71 41
99 53 88 39 153 97 202 177 45 77 59 113 69 193 8 58 -12 156 -40 194 -74 101
-101 132 -148 169 -119 95 -145 114 -193 139 -63 33 -85 52 -85 75 0 20 69 83
151 140 64 43 161 153 190 214 14 30 19 63 19 136 0 123 -22 170 -123 266 -59
55 -92 77 -178 115 -130 58 -184 67 -444 73 -161 3 -221 0 -310 -14z m460
-193 c28 -7 55 -26 93 -67 69 -72 94 -127 100 -216 l4 -71 -48 -59 c-87 -105
-163 -174 -208 -187 -22 -7 -81 -12 -131 -13 -92 0 -146 17 -198 63 -9 8 -37
27 -61 41 -24 14 -66 52 -95 84 -51 57 -51 57 -51 126 0 107 20 157 87 219 63
58 101 82 148 92 43 9 313 0 360 -12z m-56 -919 c31 -18 78 -43 104 -57 44
-24 98 -77 202 -198 40 -46 40 -47 40 -129 l0 -82 -49 -64 c-122 -159 -143
-168 -411 -180 -204 -9 -261 -2 -348 43 -50 25 -148 104 -164 132 -8 14 -12
69 -13 158 l0 137 66 73 c36 40 77 79 92 87 15 7 45 28 67 46 65 52 86 60 180
66 128 9 170 3 234 -32z"/>
<path d="M12050 2321 c-24 -10 -50 -27 -56 -37 -7 -10 -17 -63 -23 -116 -7
-64 -21 -123 -40 -171 -17 -41 -39 -125 -51 -188 -12 -62 -32 -147 -46 -189
-33 -104 -32 -123 13 -157 l36 -28 211 -6 c217 -7 401 -31 478 -63 116 -49
251 -172 264 -241 3 -19 4 -93 3 -164 l-4 -130 -52 -49 c-29 -26 -53 -54 -53
-61 0 -6 -24 -23 -52 -37 -29 -13 -73 -38 -98 -54 -72 -48 -242 -73 -430 -66
-80 3 -190 12 -245 21 -194 29 -225 18 -233 -77 -7 -91 -8 -91 318 -144 139
-23 418 -15 530 15 41 10 102 25 135 31 33 6 101 30 150 51 50 22 104 46 120
53 68 31 239 186 271 247 26 52 64 217 64 283 0 91 -44 211 -101 273 -75 83
-134 132 -185 154 -27 12 -59 30 -72 40 -13 10 -49 23 -80 29 -31 7 -93 21
-137 32 -111 28 -174 38 -293 47 -87 6 -106 11 -127 31 -28 26 -30 50 -15 144
5 34 12 82 15 108 4 31 19 66 46 105 21 32 39 63 39 69 0 6 12 21 26 35 l25
24 382 3 c243 2 392 7 410 14 47 18 72 92 47 139 -27 49 -32 49 -607 48 -495
0 -542 -2 -583 -18z"/>
<path d="M7300 2323 c-108 -9 -325 -44 -355 -59 -33 -15 -65 -65 -65 -99 0
-38 25 -97 48 -116 34 -27 83 -24 182 11 97 34 244 55 334 47 33 -3 99 -15
145 -28 68 -19 92 -31 133 -68 63 -56 78 -91 78 -180 0 -69 0 -69 -52 -131
-91 -107 -226 -159 -428 -165 -69 -1 -128 -3 -132 -4 -14 -2 -48 -80 -48 -111
0 -35 20 -79 45 -100 12 -10 54 -14 143 -16 163 -2 236 -16 347 -66 98 -43
186 -116 211 -175 8 -19 14 -66 14 -113 0 -100 -13 -130 -81 -197 -59 -56
-145 -102 -249 -130 -99 -27 -448 -24 -577 6 -109 25 -151 26 -179 6 -53 -36
-56 -145 -6 -195 22 -21 47 -30 127 -45 84 -16 144 -19 380 -19 l280 0 150 36
c175 42 272 84 377 161 100 74 137 119 183 224 56 125 55 186 -3 304 -23 48
-51 98 -62 112 -23 29 -141 105 -234 152 -77 39 -85 52 -61 105 20 44 47 70
146 141 49 35 76 64 114 125 46 73 50 84 49 139 0 52 -6 71 -48 148 -93 169
-235 244 -534 281 -128 16 -302 25 -372 19z"/>
<path d="M10246 2316 c-41 -11 -60 -26 -115 -86 -36 -40 -107 -116 -158 -169
-51 -53 -113 -118 -137 -146 -25 -27 -85 -91 -133 -141 -49 -51 -100 -105
-114 -120 -14 -16 -87 -94 -163 -174 -157 -164 -315 -338 -363 -398 -26 -32
-33 -50 -33 -86 0 -56 17 -95 44 -101 12 -3 274 -6 583 -7 524 -3 564 -4 580
-21 16 -16 19 -44 23 -240 6 -228 13 -268 49 -282 9 -4 74 -6 146 -5 119 1
132 3 153 23 59 55 62 70 61 260 0 192 3 206 54 237 26 17 51 20 139 20 123 0
149 9 172 56 30 65 15 119 -42 148 -15 8 -70 17 -122 21 -103 8 -144 25 -176
73 -17 25 -19 62 -22 542 -4 551 -5 558 -54 589 -33 21 -305 26 -372 7z m-2
-408 c14 -19 16 -72 16 -378 0 -318 -2 -359 -18 -390 l-17 -35 -130 -8 c-75
-5 -206 -5 -309 0 -171 9 -180 11 -198 34 -36 43 -20 77 99 210 59 67 152 168
206 225 53 57 97 108 97 114 0 5 37 52 83 104 45 52 90 106 100 120 22 32 51
33 71 4z"/>
<path d="M16404 2316 c-68 -30 -83 -95 -35 -148 l29 -33 563 -7 c615 -8 609
-8 609 -66 0 -50 -21 -103 -55 -140 -18 -21 -44 -62 -58 -92 -13 -30 -34 -64
-47 -75 -12 -11 -35 -46 -51 -78 -17 -32 -36 -60 -44 -63 -8 -3 -27 -31 -42
-62 -15 -32 -44 -77 -65 -101 -21 -24 -38 -50 -38 -58 0 -7 -18 -33 -40 -56
-21 -24 -48 -65 -60 -91 -11 -27 -32 -63 -47 -80 -14 -17 -37 -53 -50 -81 -13
-27 -42 -78 -66 -112 -61 -89 -112 -172 -136 -220 -12 -23 -34 -57 -50 -75
-15 -18 -33 -49 -40 -69 -6 -20 -26 -54 -44 -75 -78 -93 -88 -145 -38 -195 29
-28 30 -29 129 -25 87 2 108 7 159 32 37 19 66 42 80 64 12 19 35 53 52 75 16
22 40 63 54 91 14 27 33 57 43 65 9 8 28 39 41 69 14 30 35 66 48 80 12 14 37
51 54 83 17 32 42 68 57 79 14 12 35 41 45 66 11 25 33 61 50 80 17 19 39 55
50 79 10 24 30 55 44 69 14 14 37 49 52 77 14 29 36 66 49 83 13 17 30 50 39
73 8 24 31 61 50 82 19 21 48 64 64 96 16 32 38 66 49 76 11 10 26 33 33 50 7
18 27 53 46 79 18 25 43 68 54 95 12 26 36 64 54 83 48 51 85 183 66 233 -23
59 2 57 -848 57 -633 -1 -784 -3 -809 -14z"/>
<path d="M4960 2305 c-180 -17 -187 -18 -284 -58 -91 -37 -111 -60 -101 -113
16 -90 95 -108 232 -53 64 25 102 33 211 41 146 12 291 1 340 -25 129 -69 161
-91 197 -134 l40 -48 3 -119 c5 -152 -1 -179 -47 -229 -21 -23 -47 -60 -58
-83 -29 -60 -122 -172 -198 -240 -37 -32 -114 -101 -171 -153 -58 -52 -120
-105 -138 -117 -18 -13 -36 -30 -39 -38 -3 -8 -23 -24 -44 -35 -21 -10 -52
-32 -69 -47 -16 -16 -50 -44 -75 -61 -74 -55 -132 -101 -165 -132 -18 -16 -50
-41 -72 -55 -42 -26 -102 -103 -102 -130 0 -18 77 -86 99 -87 9 0 102 -2 206
-3 105 -1 441 -6 747 -11 l557 -8 20 34 c34 55 36 92 9 141 l-24 43 -455 -4
c-463 -3 -488 -2 -511 33 -16 24 -7 57 24 83 17 16 55 48 84 73 28 25 76 64
105 87 30 23 74 58 99 77 25 20 61 46 80 59 19 14 72 60 116 103 45 44 110
106 145 140 35 33 82 83 104 110 36 43 56 74 126 190 24 40 71 270 63 309 -21
103 -49 170 -94 224 -76 91 -132 137 -191 156 -30 10 -75 28 -102 42 -38 19
-77 26 -215 38 -195 17 -256 17 -452 0z"/>
<path d="M15225 2290 c-38 -11 -122 -26 -185 -34 -105 -14 -228 -50 -308 -90
-15 -7 -49 -19 -76 -25 -27 -7 -66 -25 -85 -40 -20 -16 -61 -41 -91 -56 -86
-44 -131 -80 -284 -230 -50 -48 -74 -84 -124 -185 -35 -69 -72 -136 -83 -151
-33 -42 -51 -172 -49 -364 1 -193 23 -315 67 -366 7 -9 26 -42 42 -75 65 -133
207 -231 456 -315 66 -22 84 -23 310 -23 307 0 365 8 490 69 54 26 116 62 139
79 22 18 56 41 74 51 32 19 115 123 146 184 40 77 48 399 12 486 -36 87 -206
224 -343 276 -40 16 -88 36 -106 46 -43 23 -240 34 -382 23 -74 -7 -149 -21
-229 -45 -66 -19 -129 -35 -141 -35 -30 0 -45 19 -45 56 0 48 16 82 60 130 21
23 46 56 54 73 9 17 20 31 25 31 4 0 29 18 54 40 84 74 197 149 245 164 27 7
77 28 112 46 64 32 136 45 378 65 67 6 89 12 112 32 56 47 57 126 1 182 -18
18 -33 21 -98 20 -44 0 -109 -9 -148 -19z m-162 -974 c79 -37 101 -53 151
-110 32 -38 65 -84 72 -104 16 -45 18 -261 3 -315 -5 -20 -20 -44 -33 -52 -12
-8 -32 -33 -45 -55 -13 -23 -39 -52 -59 -66 -21 -13 -51 -35 -69 -48 -22 -16
-64 -29 -128 -41 -90 -16 -103 -16 -193 -1 -63 11 -106 23 -122 36 -14 11 -48
36 -75 54 -77 51 -122 107 -141 173 -9 32 -30 82 -47 112 -26 47 -30 63 -30
135 -1 44 4 90 11 102 6 11 38 49 71 83 100 103 200 133 464 139 72 2 83 -1
170 -42z"/>
<path d="M21806 2295 c-136 -13 -141 -15 -237 -65 -321 -165 -415 -319 -394
-644 9 -150 22 -185 92 -259 58 -62 191 -159 235 -172 13 -4 59 -23 103 -43
71 -32 94 -37 195 -43 165 -11 303 3 450 45 151 45 177 46 191 9 15 -41 -2
-88 -60 -164 -76 -99 -145 -165 -233 -222 -31 -21 -62 -44 -68 -52 -7 -9 -38
-22 -69 -31 -31 -9 -84 -31 -118 -49 -65 -34 -80 -37 -316 -60 -159 -14 -174
-20 -203 -77 -8 -15 -14 -39 -14 -54 0 -31 34 -90 60 -104 32 -17 142 -10 238
15 52 13 138 29 192 34 93 10 129 21 300 91 25 10 60 21 78 25 18 4 54 23 79
42 26 20 62 42 81 50 19 8 57 30 84 48 46 32 78 61 207 185 48 47 114 157 152
252 11 29 31 64 44 78 12 14 26 35 29 46 20 66 36 217 36 343 0 124 -4 156
-26 240 -15 53 -36 109 -47 126 -12 16 -33 54 -48 85 -47 98 -170 194 -334
262 -60 25 -134 51 -163 57 -87 18 -362 22 -516 6z m376 -199 c49 -14 93 -46
190 -135 48 -45 61 -64 74 -110 9 -31 30 -80 47 -110 24 -42 31 -70 35 -126 2
-40 -1 -87 -7 -106 -13 -40 -113 -149 -159 -173 -89 -46 -166 -64 -304 -70
l-137 -7 -88 37 c-76 33 -98 48 -160 114 -40 41 -79 91 -85 110 -8 22 -13 87
-13 175 1 145 7 175 47 203 10 7 27 31 38 53 11 21 38 50 59 64 22 13 42 29
46 35 36 58 285 86 417 46z"/>
<path d="M3155 2269 c-38 -10 -80 -19 -93 -19 -12 0 -62 -15 -110 -34 -48 -18
-121 -41 -162 -50 -68 -15 -153 -47 -250 -94 -51 -25 -67 -59 -52 -111 7 -22
23 -53 36 -68 23 -27 26 -27 67 -15 24 6 89 24 144 38 55 15 117 35 138 46 22
11 69 22 107 25 63 5 70 4 93 -19 15 -15 26 -41 30 -69 3 -24 6 -351 6 -725
-1 -759 -4 -721 68 -784 l34 -31 137 3 136 3 20 35 c21 35 21 45 21 937 l0
901 -24 26 c-23 24 -27 25 -150 25 -90 -1 -146 -6 -196 -20z"/>
<path d="M842 2264 c-102 -12 -124 -19 -205 -60 -130 -66 -218 -126 -263 -181
-78 -95 -123 -174 -153 -271 -57 -183 -61 -212 -61 -438 0 -181 3 -221 19
-275 11 -35 27 -93 36 -129 9 -36 29 -83 44 -105 15 -22 39 -60 53 -85 38 -65
165 -194 218 -220 25 -13 57 -31 71 -41 14 -10 83 -35 155 -56 123 -36 136
-38 269 -38 132 0 147 2 270 38 81 23 145 48 170 66 22 16 63 40 90 54 52 27
129 96 181 163 60 78 131 227 158 334 23 92 26 122 26 283 0 260 -23 387 -99
542 -59 120 -128 216 -179 250 -20 14 -48 33 -62 43 -58 44 -160 103 -191 112
-37 11 -293 30 -379 29 -30 -1 -106 -7 -168 -15z m335 -206 c107 -59 125 -71
152 -109 16 -22 41 -49 54 -59 17 -13 30 -40 41 -86 10 -37 27 -88 38 -113 33
-72 48 -155 54 -301 7 -167 -12 -330 -48 -410 -14 -30 -31 -79 -37 -109 -12
-55 -21 -68 -134 -195 -73 -82 -98 -91 -252 -91 -154 0 -170 5 -271 94 -54 46
-76 74 -89 109 -10 26 -34 76 -54 112 l-36 65 0 370 0 370 32 51 c18 27 39 70
48 94 23 65 59 107 139 159 97 63 117 69 226 70 81 1 102 -2 137 -21z"/>
<path d="M23842 1756 c-49 -16 -78 -39 -98 -78 -20 -38 -18 -59 11 -98 35 -47
69 -67 142 -80 64 -12 115 -7 184 21 28 11 69 74 69 108 0 35 -42 109 -69 121
-40 19 -189 22 -239 6z"/>
<path d="M23857 860 c-15 -5 -50 -27 -77 -50 -44 -37 -50 -47 -50 -80 0 -43
15 -64 79 -109 41 -29 50 -31 130 -31 100 0 143 17 178 69 34 50 30 100 -10
152 -18 24 -44 46 -57 50 -35 10 -159 9 -193 -1z"/>
</g>
</svg>
